<?xml version="1.0" encoding="UTF-8" standalone="no"?>
<svg
   width="16"
   height="16"
   version="1.1"
   id="svg1"
   sodipodi:docname="Sprite3D.svg"
   inkscape:version="1.3.2 (091e20ef0f, 2023-11-25)"
   xmlns:inkscape="http://www.inkscape.org/namespaces/inkscape"
   xmlns:sodipodi="http://sodipodi.sourceforge.net/DTD/sodipodi-0.dtd"
   xmlns:xlink="http://www.w3.org/1999/xlink"
   xmlns="http://www.w3.org/2000/svg"
   xmlns:svg="http://www.w3.org/2000/svg">
  <defs
     id="defs1">
    <linearGradient
       id="linearGradient3"
       inkscape:collect="always">
      <stop
         style="stop-color:#c6c8ff;stop-opacity:1;"
         offset="0"
         id="stop3" />
      <stop
         style="stop-color:#faa6a6;stop-opacity:1;"
         offset="1"
         id="stop4" />
    </linearGradient>
    <linearGradient
       inkscape:collect="always"
       xlink:href="#linearGradient3"
       id="linearGradient4"
       x1="7.8484426"
       y1="14.915835"
       x2="7.9987946"
       y2="1.0572567"
       gradientUnits="userSpaceOnUse" />
  </defs>
  <sodipodi:namedview
     id="namedview1"
     pagecolor="#ffffff"
     bordercolor="#000000"
     borderopacity="0.25"
     inkscape:showpageshadow="2"
     inkscape:pageopacity="0.0"
     inkscape:pagecheckerboard="0"
     inkscape:deskcolor="#d1d1d1"
     inkscape:zoom="53.25"
     inkscape:cx="7.971831"
     inkscape:cy="8"
     inkscape:window-width="1920"
     inkscape:window-height="1052"
     inkscape:window-x="0"
     inkscape:window-y="0"
     inkscape:window-maximized="1"
     inkscape:current-layer="svg1" />
  <path
     fill="#fc7f7f"
     d="M5 1a4 4 0 0 0-4 4v6a4 4 0 0 0 4 4h6a4 4 0 0 0 4-4V5a4 4 0 0 0-4-4zM3 7a1 1 0 0 1 2 0v2a1 1 0 0 1-2 0zm10 2a1 1 0 0 1-2 0V7a1 1 0 0 1 2 0zm-2.172 3.828a4 4 0 0 1-5.656 0 1 1 0 0 1 1.414-1.414 2 2 0 0 0 2.828 0 1 1 0 0 1 1.414 1.414z"
     id="path1"
     style="fill:url(#linearGradient4);fill-opacity:1" />
  <path
     style="fill:#800080;fill-opacity:0;stroke-width:0.0187793"
     d="M 4.4788732,14.955538 C 2.6223272,14.705899 1.1852887,13.19904 1.0245031,11.333333 0.9979988,11.025785 0.9979988,4.9742146 1.0245031,4.6666667 1.1714951,2.9610169 2.3990201,1.5257316 4.0519696,1.1267975 4.5337996,1.0105093 4.4085711,1.0140845 8,1.0140845 c 3.519075,0 3.447479,-0.00176 3.886028,0.095557 1.67143,0.3709029 2.940844,1.8324284 3.089469,3.5570254 0.0265,0.3075479 0.0265,6.3591181 0,6.6666661 -0.09786,1.135558 -0.683463,2.186923 -1.596859,2.866937 -0.437045,0.325375 -0.979722,0.576275 -1.49261,0.690089 -0.439588,0.09755 -0.3625,0.0957 -3.9104641,0.09362 -2.72755,-0.0016 -3.3336886,-0.0065 -3.4966907,-0.02845 z m 3.887324,-0.966056 c 0.890277,-0.08154 1.7360838,-0.460593 2.3644408,-1.059636 0.275552,-0.262697 0.377664,-0.472583 0.379117,-0.779255 0.0013,-0.277568 -0.08007,-0.500614 -0.251096,-0.688131 -0.205096,-0.224876 -0.442886,-0.330098 -0.745983,-0.330098 -0.2951233,0 -0.4944713,0.08305 -0.7458486,0.310718 C 9.0137572,11.762854 8.6011701,11.947251 8.1690141,11.97842 7.586947,12.020401 7.0726924,11.84115 6.6331726,11.44308 6.3817953,11.215409 6.1824473,11.132362 5.8873239,11.132362 c -0.3030969,0 -0.5408873,0.105222 -0.7459829,0.330098 -0.174154,0.190951 -0.2522556,0.405273 -0.2510274,0.688858 0.00128,0.294754 0.103545,0.51352 0.3515865,0.752092 0.8258766,0.794345 1.9693784,1.19185 3.1242971,1.086072 z M 4.2182535,9.9823784 c 0.3596451,-0.076232 0.6628226,-0.3701249 0.7577392,-0.7345343 0.042748,-0.16412 0.042748,-2.3315682 0,-2.4956882 C 4.8748261,6.3637515 4.5476199,6.0669908 4.1534131,6.0061146 3.6439673,5.9274423 3.1546244,6.250683 3.0240073,6.7521559 c -0.042748,0.16412 -0.042748,2.3315682 0,2.4956882 C 3.0713825,9.4297294 3.17409,9.60229 3.3114528,9.7307861 3.5606708,9.9639174 3.8831887,10.0534 4.2182535,9.9823784 Z m 8.0000005,0 c 0.359645,-0.076232 0.662822,-0.3701249 0.757739,-0.7345343 0.04275,-0.16412 0.04275,-2.3315682 0,-2.4956882 -0.101167,-0.3884044 -0.428373,-0.6851651 -0.82258,-0.7460413 -0.509446,-0.078672 -0.998789,0.2445684 -1.129406,0.7460413 -0.04275,0.16412 -0.04275,2.3315682 0,2.4956882 0.04738,0.1818853 0.150083,0.3544459 0.287446,0.482942 0.249218,0.2331313 0.571736,0.3226139 0.906801,0.2515923 z"
     id="path2" />
  <path
     style="fill:#800080;fill-opacity:0;stroke-width:0.0187793"
     d="M 4.4788732,14.955538 C 2.6223272,14.705899 1.1852887,13.19904 1.0245031,11.333333 0.9979988,11.025785 0.9979988,4.9742146 1.0245031,4.6666667 1.1714951,2.9610169 2.3990201,1.5257316 4.0519696,1.1267975 4.5337996,1.0105093 4.4085711,1.0140845 8,1.0140845 c 3.519075,0 3.447479,-0.00176 3.886028,0.095557 1.67143,0.3709029 2.940844,1.8324284 3.089469,3.5570254 0.0265,0.3075479 0.0265,6.3591181 0,6.6666661 -0.09786,1.135558 -0.683463,2.186923 -1.596859,2.866937 -0.437045,0.325375 -0.979722,0.576275 -1.49261,0.690089 -0.439588,0.09755 -0.3625,0.0957 -3.9104641,0.09362 -2.72755,-0.0016 -3.3336886,-0.0065 -3.4966907,-0.02845 z m 3.887324,-0.966056 c 0.890277,-0.08154 1.7360838,-0.460593 2.3644408,-1.059636 0.275552,-0.262697 0.377664,-0.472583 0.379117,-0.779255 0.0013,-0.277568 -0.08007,-0.500614 -0.251096,-0.688131 -0.205096,-0.224876 -0.442886,-0.330098 -0.745983,-0.330098 -0.2951233,0 -0.4944713,0.08305 -0.7458486,0.310718 C 9.0137572,11.762854 8.6011701,11.947251 8.1690141,11.97842 7.586947,12.020401 7.0726924,11.84115 6.6331726,11.44308 6.3817953,11.215409 6.1824473,11.132362 5.8873239,11.132362 c -0.3030969,0 -0.5408873,0.105222 -0.7459829,0.330098 -0.174154,0.190951 -0.2522556,0.405273 -0.2510274,0.688858 0.00128,0.294754 0.103545,0.51352 0.3515865,0.752092 0.8258766,0.794345 1.9693784,1.19185 3.1242971,1.086072 z M 4.2182535,9.9823784 c 0.3596451,-0.076232 0.6628226,-0.3701249 0.7577392,-0.7345343 0.042748,-0.16412 0.042748,-2.3315682 0,-2.4956882 C 4.8748261,6.3637515 4.5476199,6.0669908 4.1534131,6.0061146 3.6439673,5.9274423 3.1546244,6.250683 3.0240073,6.7521559 c -0.042748,0.16412 -0.042748,2.3315682 0,2.4956882 C 3.0713825,9.4297294 3.17409,9.60229 3.3114528,9.7307861 3.5606708,9.9639174 3.8831887,10.0534 4.2182535,9.9823784 Z m 8.0000005,0 c 0.359645,-0.076232 0.662822,-0.3701249 0.757739,-0.7345343 0.04275,-0.16412 0.04275,-2.3315682 0,-2.4956882 -0.101167,-0.3884044 -0.428373,-0.6851651 -0.82258,-0.7460413 -0.509446,-0.078672 -0.998789,0.2445684 -1.129406,0.7460413 -0.04275,0.16412 -0.04275,2.3315682 0,2.4956882 0.04738,0.1818853 0.150083,0.3544459 0.287446,0.482942 0.249218,0.2331313 0.571736,0.3226139 0.906801,0.2515923 z"
     id="path3" />
</svg>
